<svg width="159" height="78" viewBox="0 0 159 78" fill="none" xmlns="http://www.w3.org/2000/svg">
<path d="M3.7959 57.25V48.1855L27.1045 11.8516H41.501V48.0332H48.5088V57.25H41.501V67H30.6084V57.25H3.7959ZM15.374 48.0332H30.7607V24.4199H30.2275L15.374 47.5762V48.0332Z" fill="#DBDBDB"/>
<path d="M110.796 57.25V48.1855L134.104 11.8516H148.501V48.0332H155.509V57.25H148.501V67H137.608V57.25H110.796ZM122.374 48.0332H137.761V24.4199H137.228L122.374 47.5762V48.0332Z" fill="#DBDBDB"/>
<path d="M99.2914 45.7086C102.999 45.7086 106 42.7074 106 39C106 35.2926 102.999 32.2914 99.2914 32.2914C97.0625 32.2914 92.2297 33.3727 88.7209 35.0388C88.7098 34.9947 88.6878 34.9616 88.6767 34.9174C92.34 33.6154 96.5219 30.9673 98.0997 29.3895C100.715 26.7744 100.715 22.5153 98.0997 19.9003C95.4847 17.2852 91.2256 17.2852 88.6105 19.9003C87.0327 21.4781 84.3845 25.66 83.0825 29.3233C83.0384 29.3012 83.0053 29.2901 82.9612 29.2791C84.6273 25.7703 85.7086 20.9264 85.7086 18.7086C85.7086 15.0012 82.7074 12 79 12C75.2926 12 72.2914 15.0012 72.2914 18.7086C72.2914 20.9375 73.3727 25.7703 75.0388 29.2791C74.9947 29.2901 74.9616 29.3122 74.9174 29.3233C73.6154 25.66 70.9673 21.4781 69.3894 19.9003C66.7744 17.2852 62.5153 17.2852 59.9003 19.9003C57.2853 22.5153 57.2853 26.7744 59.9003 29.3895C61.4781 30.9673 65.66 33.6154 69.3232 34.9174C69.3012 34.9616 69.2902 34.9947 69.2791 35.0388C65.7703 33.3727 60.9264 32.2914 58.7086 32.2914C55.0012 32.2914 52 35.2926 52 39C52 42.7074 55.0012 45.7086 58.7086 45.7086C60.9375 45.7086 65.7703 44.6273 69.2791 42.9612C69.2902 43.0053 69.3122 43.0384 69.3232 43.0826C65.66 44.3846 61.4781 47.0327 59.9003 48.6105C57.2853 51.2256 57.2853 55.4847 59.9003 58.0997C62.5153 60.7148 66.7744 60.7148 69.3894 58.0997C70.9673 56.5219 73.6154 52.34 74.9174 48.6767C74.9616 48.6988 74.9947 48.7099 75.0388 48.7209C73.3727 52.2297 72.2914 57.0736 72.2914 59.2914C72.2914 62.9988 75.2926 66 79 66C82.7074 66 85.7086 62.9988 85.7086 59.2914C85.7086 57.0625 84.6273 52.2297 82.9612 48.7209C83.0053 48.7099 83.0384 48.6878 83.0825 48.6767C84.3845 52.34 87.0327 56.5219 88.6105 58.0997C91.2256 60.7148 95.4847 60.7148 98.0997 58.0997C100.715 55.4847 100.715 51.2256 98.0997 48.6105C96.5219 47.0327 92.34 44.3846 88.6767 43.0826C88.6988 43.0384 88.7098 43.0053 88.7209 42.9612C92.2297 44.6273 97.0736 45.7086 99.2914 45.7086Z" fill="#DBDBDB"/>
<circle cx="80" cy="39" r="5" fill="#F4F4F4"/>
</svg>
