<svg width="360" height="800" viewBox="0 0 360 800" fill="none" xmlns="http://www.w3.org/2000/svg">
<g clip-path="url(#clip0_356_4200)">
<path d="M134 709.5C134 707.287 130.894 705.486 119.064 705.486C115.677 705.486 112.473 705.634 109.621 705.899C112.224 704.718 115.069 703.266 118.005 701.595C128.252 695.755 130.031 692.67 128.906 690.753C127.781 688.837 124.184 688.811 113.937 694.651C111.001 696.322 108.3 698.033 105.966 699.665C107.62 697.361 109.353 694.696 111.047 691.799C116.965 681.686 116.939 678.137 114.997 677.027C113.055 675.917 109.922 677.672 104.011 687.785C102.317 690.682 100.846 693.496 99.6489 696.058C99.9171 693.244 100.067 690.082 100.067 686.739C100.067 675.065 98.2495 672 96 672C93.7505 672 91.9325 675.065 91.9325 686.739C91.9325 690.082 92.0829 693.244 92.3511 696.058C91.1544 693.489 89.683 690.682 87.9893 687.785C82.0712 677.672 78.9454 675.917 77.0033 677.027C75.0611 678.137 75.0349 681.686 80.953 691.799C82.6467 694.696 84.3796 697.361 86.0341 699.665C83.6995 698.033 80.9988 696.322 78.0626 694.651C67.8155 688.811 64.2189 688.837 63.0941 690.753C61.9694 692.67 63.7481 695.761 73.9952 701.595C76.9313 703.266 79.7825 704.718 82.3786 705.899C79.5274 705.634 76.3232 705.486 72.9358 705.486C61.1062 705.486 58 707.28 58 709.5C58 711.72 61.1062 713.514 72.9358 713.514C76.3232 713.514 79.5274 713.366 82.3786 713.101C79.7759 714.282 76.9313 715.734 73.9952 717.405C63.7481 723.245 61.9694 726.33 63.0941 728.247C64.2189 730.163 67.8155 730.189 78.0626 724.349C80.9988 722.678 83.6995 720.967 86.0341 719.335C84.3796 721.639 82.6467 724.304 80.953 727.201C75.0349 737.314 75.0611 740.863 77.0033 741.973C78.9454 743.083 82.0778 741.328 87.9893 731.215C89.683 728.318 91.1544 725.504 92.3511 722.942C92.0829 725.756 91.9325 728.918 91.9325 732.261C91.9325 743.935 93.7505 747 96 747C98.2495 747 100.067 743.935 100.067 732.261C100.067 728.918 99.9171 725.756 99.6489 722.942C100.846 725.511 102.317 728.318 104.011 731.215C109.929 741.328 113.055 743.083 114.997 741.973C116.939 740.863 116.965 737.314 111.047 727.201C109.353 724.304 107.62 721.639 105.966 719.335C108.3 720.967 111.001 722.678 113.937 724.349C124.184 730.189 127.781 730.163 128.906 728.247C130.031 726.33 128.252 723.239 118.005 717.405C115.069 715.734 112.218 714.282 109.621 713.101C112.473 713.366 115.677 713.514 119.064 713.514C130.894 713.514 134 711.72 134 709.5Z" fill="#82E1E8"/>
<path d="M69 259.5C69 256.401 64.6677 253.88 48.1685 253.88C43.444 253.88 38.9749 254.088 34.9983 254.459C38.6283 252.805 42.5958 250.773 46.6909 248.433C60.983 240.256 63.4638 235.938 61.895 233.255C60.3263 230.571 55.3099 230.535 41.0179 238.711C36.9227 241.051 33.1559 243.446 29.8998 245.731C32.2074 242.506 34.6243 238.775 36.9866 234.718C45.2407 220.561 45.2043 215.592 42.4954 214.038C39.7866 212.484 35.4178 214.941 27.1728 229.099C24.8105 233.155 22.7584 237.094 21.0893 240.681C21.4633 236.742 21.673 232.315 21.673 227.635C21.673 211.291 19.1375 207 16 207C12.8625 207 10.327 211.291 10.327 227.635C10.327 232.315 10.5367 236.742 10.9107 240.681C9.24161 237.085 7.18947 233.155 4.82722 229.099C-3.42695 214.941 -7.78661 212.484 -10.4954 214.038C-13.2043 215.592 -13.2408 220.561 -4.98658 234.718C-2.62433 238.775 -0.207367 242.506 2.10015 245.731C-1.15591 243.446 -4.92273 241.051 -9.0179 238.711C-23.3099 230.535 -28.3263 230.571 -29.895 233.255C-31.4638 235.938 -28.983 240.265 -14.6909 248.433C-10.5958 250.773 -6.61917 252.805 -2.99828 254.459C-6.97487 254.088 -11.444 253.88 -16.1685 253.88C-32.6677 253.88 -37 256.392 -37 259.5C-37 262.608 -32.6677 265.12 -16.1685 265.12C-11.444 265.12 -6.97487 264.912 -2.99828 264.541C-6.62829 266.195 -10.5958 268.227 -14.6909 270.567C-28.983 278.744 -31.4638 283.062 -29.895 285.745C-28.3263 288.429 -23.3099 288.465 -9.0179 280.289C-4.92273 277.949 -1.15591 275.554 2.10015 273.269C-0.207367 276.494 -2.62433 280.225 -4.98658 284.282C-13.2408 298.439 -13.2043 303.408 -10.4954 304.962C-7.78661 306.516 -3.41783 304.059 4.82722 289.901C7.18947 285.845 9.24161 281.906 10.9107 278.319C10.5367 282.258 10.327 286.685 10.327 291.365C10.327 307.709 12.8625 312 16 312C19.1375 312 21.673 307.709 21.673 291.365C21.673 286.685 21.4633 282.258 21.0893 278.319C22.7584 281.915 24.8105 285.845 27.1728 289.901C35.4269 304.059 39.7866 306.516 42.4954 304.962C45.2043 303.408 45.2407 298.439 36.9866 284.282C34.6243 280.225 32.2074 276.494 29.8998 273.269C33.1559 275.554 36.9227 277.949 41.0179 280.289C55.3099 288.465 60.3263 288.429 61.895 285.745C63.4638 283.062 60.983 278.735 46.6909 270.567C42.5958 268.227 38.6192 266.195 34.9983 264.541C38.9749 264.912 43.444 265.12 48.1685 265.12C64.6677 265.12 69 262.608 69 259.5Z" fill="#F7F362"/>
<path d="M294.5 92C299.194 92 303 88.1944 303 83.5C303 78.8056 299.194 75 294.5 75C289.806 75 286 78.8056 286 83.5C286 88.1944 289.806 92 294.5 92Z" fill="#F7F362"/>
<path d="M315.5 710C320.194 710 324 706.194 324 701.5C324 696.806 320.194 693 315.5 693C310.806 693 307 696.806 307 701.5C307 706.194 310.806 710 315.5 710Z" fill="#F7F362"/>
<path d="M35.5 101C40.1944 101 44 97.1944 44 92.5C44 87.8056 40.1944 84 35.5 84C30.8056 84 27 87.8056 27 92.5C27 97.1944 30.8056 101 35.5 101Z" fill="#FF984D"/>
<path d="M68.5 596C73.1944 596 77 592.194 77 587.5C77 582.806 73.1944 579 68.5 579C63.8056 579 60 582.806 60 587.5C60 592.194 63.8056 596 68.5 596Z" fill="#FF984D"/>
<path d="M335.5 294C340.194 294 344 290.194 344 285.5C344 280.806 340.194 277 335.5 277C330.806 277 327 280.806 327 285.5C327 290.194 330.806 294 335.5 294Z" fill="#82E1E8"/>
<path d="M123.5 268C128.194 268 132 264.194 132 259.5C132 254.806 128.194 251 123.5 251C118.806 251 115 254.806 115 259.5C115 264.194 118.806 268 123.5 268Z" fill="#FF6060"/>
<path d="M320 170C320 170 324.44 112.143 376.972 101C376.972 101 380.109 152.686 320 170Z" fill="#8EC159"/>
<path d="M56.0632 493.228C56.0632 493.228 99.7209 494.349 110.185 533.724C110.185 533.724 71.464 538.103 56.0632 493.228Z" fill="#8EC159"/>
<path d="M228.534 195.466C231.555 195.466 234 193.021 234 190C234 186.979 231.555 184.534 228.534 184.534C226.718 184.534 222.78 185.415 219.921 186.772C219.912 186.736 219.894 186.709 219.885 186.673C222.87 185.613 226.277 183.455 227.563 182.169C229.693 180.038 229.693 176.568 227.563 174.437C225.432 172.306 221.962 172.306 219.831 174.437C218.545 175.723 216.387 179.13 215.327 182.115C215.291 182.097 215.264 182.088 215.228 182.079C216.585 179.22 217.466 175.273 217.466 173.466C217.466 170.445 215.021 168 212 168C208.979 168 206.534 170.445 206.534 173.466C206.534 175.282 207.415 179.22 208.772 182.079C208.736 182.088 208.709 182.106 208.673 182.115C207.613 179.13 205.455 175.723 204.169 174.437C202.038 172.306 198.568 172.306 196.437 174.437C194.307 176.568 194.307 180.038 196.437 182.169C197.723 183.455 201.13 185.613 204.115 186.673C204.097 186.709 204.088 186.736 204.079 186.772C201.22 185.415 197.273 184.534 195.466 184.534C192.445 184.534 190 186.979 190 190C190 193.021 192.445 195.466 195.466 195.466C197.282 195.466 201.22 194.585 204.079 193.228C204.088 193.264 204.106 193.291 204.115 193.327C201.13 194.387 197.723 196.545 196.437 197.831C194.307 199.962 194.307 203.432 196.437 205.563C198.568 207.694 202.038 207.694 204.169 205.563C205.455 204.277 207.613 200.87 208.673 197.885C208.709 197.903 208.736 197.912 208.772 197.921C207.415 200.78 206.534 204.727 206.534 206.534C206.534 209.555 208.979 212 212 212C215.021 212 217.466 209.555 217.466 206.534C217.466 204.718 216.585 200.78 215.228 197.921C215.264 197.912 215.291 197.894 215.327 197.885C216.387 200.87 218.545 204.277 219.831 205.563C221.962 207.694 225.432 207.694 227.563 205.563C229.693 203.432 229.693 199.962 227.563 197.831C226.277 196.545 222.87 194.387 219.885 193.327C219.903 193.291 219.912 193.264 219.921 193.228C222.78 194.585 226.727 195.466 228.534 195.466Z" fill="#82E1E8"/>
<path d="M365.534 465.466C368.555 465.466 371 463.021 371 460C371 456.979 368.555 454.534 365.534 454.534C363.718 454.534 359.78 455.415 356.921 456.772C356.912 456.736 356.894 456.709 356.885 456.673C359.87 455.613 363.277 453.455 364.563 452.169C366.693 450.038 366.693 446.568 364.563 444.437C362.432 442.306 358.962 442.306 356.831 444.437C355.545 445.723 353.387 449.13 352.327 452.115C352.291 452.097 352.264 452.088 352.228 452.079C353.585 449.22 354.466 445.273 354.466 443.466C354.466 440.445 352.021 438 349 438C345.979 438 343.534 440.445 343.534 443.466C343.534 445.282 344.415 449.22 345.772 452.079C345.736 452.088 345.709 452.106 345.673 452.115C344.613 449.13 342.455 445.723 341.169 444.437C339.038 442.306 335.568 442.306 333.437 444.437C331.307 446.568 331.307 450.038 333.437 452.169C334.723 453.455 338.13 455.613 341.115 456.673C341.097 456.709 341.088 456.736 341.079 456.772C338.22 455.415 334.273 454.534 332.466 454.534C329.445 454.534 327 456.979 327 460C327 463.021 329.445 465.466 332.466 465.466C334.282 465.466 338.22 464.585 341.079 463.228C341.088 463.264 341.106 463.291 341.115 463.327C338.13 464.387 334.723 466.545 333.437 467.831C331.307 469.962 331.307 473.432 333.437 475.563C335.568 477.694 339.038 477.694 341.169 475.563C342.455 474.277 344.613 470.87 345.673 467.885C345.709 467.903 345.736 467.912 345.772 467.921C344.415 470.78 343.534 474.727 343.534 476.534C343.534 479.555 345.979 482 349 482C352.021 482 354.466 479.555 354.466 476.534C354.466 474.718 353.585 470.78 352.228 467.921C352.264 467.912 352.291 467.894 352.327 467.885C353.387 470.87 355.545 474.277 356.831 475.563C358.962 477.694 362.432 477.694 364.563 475.563C366.693 473.432 366.693 469.962 364.563 467.831C363.277 466.545 359.87 464.387 356.885 463.327C356.903 463.291 356.912 463.264 356.921 463.228C359.78 464.585 363.727 465.466 365.534 465.466Z" fill="#FF6060"/>
<path d="M292 619.5C292 616.364 289.708 613.769 286.719 613.278C289.069 611.354 289.757 607.964 288.185 605.246C286.613 602.528 283.338 601.431 280.497 602.503C281.569 599.662 280.464 596.387 277.754 594.815C275.044 593.243 271.646 593.931 269.722 596.281C269.231 593.284 266.636 591 263.5 591C260.364 591 257.769 593.292 257.278 596.281C255.354 593.931 251.964 593.243 249.246 594.815C246.528 596.387 245.431 599.662 246.503 602.503C243.662 601.431 240.387 602.536 238.815 605.246C237.243 607.956 237.931 611.354 240.281 613.278C237.284 613.769 235 616.364 235 619.5C235 622.636 237.292 625.231 240.281 625.722C237.931 627.646 237.243 631.036 238.815 633.754C240.387 636.472 243.662 637.569 246.503 636.497C245.431 639.338 246.536 642.613 249.246 644.185C251.964 645.749 255.354 645.069 257.278 642.719C257.769 645.716 260.364 648 263.5 648C266.636 648 269.231 645.708 269.722 642.719C271.646 645.069 275.036 645.757 277.754 644.185C280.472 642.621 281.569 639.338 280.497 636.497C283.338 637.569 286.613 636.464 288.185 633.754C289.757 631.044 289.069 627.646 286.719 625.722C289.716 625.231 292 622.636 292 619.5Z" fill="#E89053"/>
<path d="M160.406 23.0995C164.434 20.0946 167.258 15.4514 167.765 9.94844C168.597 0.897455 162.533 -7.56522 153.69 -9.68315C148.314 -10.9684 143.01 -9.79176 138.874 -6.9407C137.643 -6.08991 135.996 -6.36143 135.1 -7.56522C132.095 -11.5929 127.451 -14.4168 121.948 -14.9237C112.897 -15.7564 104.435 -9.6922 102.317 -0.849384C101.032 4.5269 102.208 9.83078 105.059 13.9671C105.91 15.198 105.639 16.8453 104.435 17.7413C100.407 20.7463 97.5832 25.3894 97.0763 30.8924C96.2436 39.9434 102.308 48.4061 111.151 50.524C116.527 51.8092 121.831 50.6326 125.967 47.7816C127.198 46.9308 128.845 47.2023 129.741 48.4061C132.746 52.4338 137.389 55.2577 142.892 55.7645C151.943 56.5972 160.406 50.5331 162.524 41.6903C163.809 36.314 162.633 31.0101 159.782 26.8738C158.931 25.6428 159.202 23.9956 160.406 23.0995Z" fill="#FF6060"/>
<path d="M140.258 22.8644L140.62 20.6379L135.289 19.7509L139.679 16.6012L138.367 14.7729L133.968 17.9226L134.855 12.5825L132.628 12.2114L131.714 17.7416L128.221 13.3609L126.456 14.7729L129.705 18.8367L124.573 17.986L124.211 20.2125L129.542 21.0904L125.152 24.2402L126.465 26.0775L130.863 22.9278L129.976 28.2679L132.203 28.6299L133.117 23.1088L136.611 27.4804L138.376 26.0775L135.126 22.0136L140.258 22.8644Z" fill="white"/>
</g>
<defs>
<clipPath id="clip0_356_4200">
<rect width="360" height="800" fill="white"/>
</clipPath>
</defs>
</svg>
