<svg width="133" height="44" viewBox="0 0 133 44" fill="none" xmlns="http://www.w3.org/2000/svg">
<path d="M20.9837 31.2658C19.699 33.0745 18.2986 34.8475 16.7824 36.5848C15.3036 38.2793 12.6955 38.2803 11.2153 36.5869C9.69396 34.8465 8.28887 33.0703 7 31.2583C5.25 28.7888 3.64583 26.0784 2.1875 23.127C0.729167 20.1757 0 17.2333 0 14.3C0 10.2667 1.34615 6.875 4.03846 4.125C6.73077 1.375 10.0513 0 14 0C17.9487 0 21.2692 1.375 23.9615 4.125C26.6538 6.875 28 10.2667 28 14.3C28 17.2132 27.2671 20.1568 25.8013 23.1308C24.3355 26.1047 22.7296 28.8164 20.9837 31.2658Z" fill="#FF6060"/>
<mask id="mask0_367_4415" style="mask-type:alpha" maskUnits="userSpaceOnUse" x="4" y="6" width="18" height="18">
<rect x="4" y="6" width="18" height="18" fill="white"/>
</mask>
<g mask="url(#mask0_367_4415)">
<path d="M13.9999 23.4302L12.9903 22.5021C11.6442 21.2783 10.5336 20.2299 9.65859 19.3568C8.78359 18.4836 8.09369 17.7068 7.58888 17.0261C7.08407 16.3455 6.73407 15.7233 6.53888 15.1596C6.34369 14.5958 6.24609 14.0183 6.24609 13.4271C6.24609 12.2033 6.65667 11.1721 7.47782 10.3333C8.29898 9.49457 9.30859 9.0752 10.5067 9.0752C11.1663 9.0752 11.8057 9.21957 12.4249 9.50832C13.0442 9.79707 13.5692 10.2027 13.9999 10.7252C14.4307 10.2027 14.9557 9.79707 15.5749 9.50832C16.1942 9.21957 16.8336 9.0752 17.4932 9.0752C18.6913 9.0752 19.7009 9.49457 20.5221 10.3333C21.3432 11.1721 21.7538 12.2033 21.7538 13.4271C21.7538 14.0183 21.6596 14.5889 21.4711 15.1389C21.2826 15.6889 20.936 16.3008 20.4312 16.9746C19.9264 17.6483 19.2331 18.4286 18.3514 19.3155C17.4697 20.2024 16.3422 21.2783 14.9692 22.5433L13.9999 23.4302Z" fill="white"/>
</g>
<g clip-path="url(#clip0_367_4415)">
<path d="M73.8951 15.8827H67.9317C66.3731 9.16492 60.346 4.14014 53.1619 4.14014C44.8017 4.14014 38 10.9472 38 19.3101C38 27.6731 44.8017 34.477 53.1619 34.477C60.209 34.477 66.15 29.6435 67.8425 23.1138H73.8951V34.8404H81.1239V4.15927H73.8951V15.8859V15.8827ZM53.1651 27.2459C48.7889 27.2459 45.2287 23.6845 45.2287 19.307C45.2287 14.9294 48.7889 11.368 53.1651 11.368C57.5412 11.368 61.1014 14.9294 61.1014 19.307C61.1014 23.6845 57.5412 27.2459 53.1651 27.2459Z" fill="#0F0F0F"/>
<path d="M133 18.0634V10.8323H125.535V4.15918H118.307V34.8403H125.535V28.0174H132.962V20.7862H125.535V18.0634H133Z" fill="#0F0F0F"/>
<path d="M87.1953 35H113.733V27.7689H94.4241V11.2311H113.733V4H87.1953V35Z" fill="#0F0F0F"/>
</g>
<defs>
<clipPath id="clip0_367_4415">
<rect width="95" height="31" fill="white" transform="translate(38 4)"/>
</clipPath>
</defs>
</svg>
