<svg width="40" height="40" viewBox="0 0 40 40" fill="none" xmlns="http://www.w3.org/2000/svg">
<mask id="mask0_549_4402" style="mask-type:alpha" maskUnits="userSpaceOnUse" x="0" y="0" width="40" height="40">
<rect width="40" height="40" fill="#D9D9D9"/>
</mask>
<g mask="url(#mask0_549_4402)">
<path d="M20.0002 28.333C20.4172 28.333 20.7669 28.192 21.0493 27.9099C21.3317 27.6278 21.4729 27.2783 21.4729 26.8613C21.4729 26.4443 21.3318 26.0946 21.0497 25.8122C20.7677 25.5298 20.4181 25.3886 20.0012 25.3886C19.5842 25.3886 19.2344 25.5296 18.952 25.8117C18.6696 26.0938 18.5284 26.4433 18.5284 26.8603C18.5284 27.2773 18.6695 27.627 18.9516 27.9094C19.2337 28.1918 19.5832 28.333 20.0002 28.333ZM18.6951 21.8608H21.4729V11.4997H18.6951V21.8608ZM20.008 36.6663C17.7074 36.6663 15.5454 36.2288 13.5219 35.3538C11.4985 34.4788 9.73214 33.2867 8.22286 31.7775C6.71361 30.2682 5.52148 28.5011 4.64648 26.4763C3.77148 24.4515 3.33398 22.288 3.33398 19.9858C3.33398 17.6836 3.77148 15.5201 4.64648 13.4953C5.52148 11.4704 6.71361 9.70801 8.22286 8.20801C9.73214 6.70801 11.4992 5.52051 13.524 4.64551C15.5488 3.77051 17.7123 3.33301 20.0145 3.33301C22.3168 3.33301 24.4803 3.77051 26.5051 4.64551C28.5299 5.52051 30.2923 6.70801 31.7923 8.20801C33.2923 9.70801 34.4798 11.4719 35.3548 13.4997C36.2298 15.5275 36.6673 17.6917 36.6673 19.9923C36.6673 22.2929 36.2298 24.4549 35.3548 26.4784C34.4798 28.5018 33.2923 30.2665 31.7923 31.7723C30.2923 33.2782 28.5284 34.4703 26.5007 35.3487C24.4729 36.2271 22.3087 36.6663 20.008 36.6663ZM20.0145 33.8886C23.8756 33.8886 27.1534 32.5367 29.8479 29.833C32.5423 27.1293 33.8896 23.8469 33.8896 19.9858C33.8896 16.1247 32.5441 12.8469 29.8531 10.1524C27.1621 7.45798 23.878 6.11076 20.0007 6.11076C16.1488 6.11076 12.871 7.45625 10.1673 10.1472C7.4636 12.8382 6.11173 16.1224 6.11173 19.9997C6.11173 23.8515 7.4636 27.1293 10.1673 29.833C12.871 32.5367 16.1534 33.8886 20.0145 33.8886Z" fill="#DBDBDB"/>
</g>
</svg>
