<svg width="38" height="38" viewBox="0 0 38 38" fill="none" xmlns="http://www.w3.org/2000/svg">
<path d="M33.2791 23.7209C35.888 23.7209 38 21.6089 38 19C38 16.3911 35.888 14.2791 33.2791 14.2791C31.7107 14.2791 28.3098 15.04 25.8406 16.2125C25.8329 16.1814 25.8173 16.1581 25.8096 16.1271C28.3874 15.2109 31.3302 13.3474 32.4405 12.237C34.2807 10.3968 34.2807 7.39967 32.4405 5.55945C30.6003 3.71924 27.6032 3.71924 25.763 5.55945C24.6526 6.66979 22.7891 9.61259 21.8729 12.1904C21.8418 12.1749 21.8185 12.1671 21.7875 12.1594C22.9599 9.69023 23.7209 6.28156 23.7209 4.72087C23.7209 2.11196 21.6089 0 19 0C16.3911 0 14.2791 2.11196 14.2791 4.72087C14.2791 6.28933 15.04 9.69023 16.2125 12.1594C16.1814 12.1671 16.1581 12.1827 16.1271 12.1904C15.2109 9.61259 13.3474 6.66979 12.237 5.55945C10.3968 3.71924 7.39968 3.71924 5.55946 5.55945C3.71925 7.39967 3.71925 10.3968 5.55946 12.237C6.6698 13.3474 9.61258 15.2109 12.1904 16.1271C12.1749 16.1581 12.1671 16.1814 12.1594 16.2125C9.69023 15.04 6.28157 14.2791 4.72088 14.2791C2.11198 14.2791 0 16.3911 0 19C0 21.6089 2.11198 23.7209 4.72088 23.7209C6.28934 23.7209 9.69023 22.96 12.1594 21.7875C12.1671 21.8186 12.1827 21.8419 12.1904 21.8729C9.61258 22.7891 6.6698 24.6526 5.55946 25.763C3.71925 27.6032 3.71925 30.6003 5.55946 32.4405C7.39968 34.2808 10.3968 34.2808 12.237 32.4405C13.3474 31.3302 15.2109 28.3874 16.1271 25.8096C16.1581 25.8251 16.1814 25.8329 16.2125 25.8406C15.04 28.3098 14.2791 31.7184 14.2791 33.2791C14.2791 35.888 16.3911 38 19 38C21.6089 38 23.7209 35.888 23.7209 33.2791C23.7209 31.7107 22.9599 28.3098 21.7875 25.8406C21.8185 25.8329 21.8418 25.8173 21.8729 25.8096C22.7891 28.3874 24.6526 31.3302 25.763 32.4405C27.6032 34.2808 30.6003 34.2808 32.4405 32.4405C34.2807 30.6003 34.2807 27.6032 32.4405 25.763C31.3302 24.6526 28.3874 22.7891 25.8096 21.8729C25.8251 21.8419 25.8329 21.8186 25.8406 21.7875C28.3098 22.96 31.7184 23.7209 33.2791 23.7209Z" fill="#FF6060"/>
</svg>
