<svg width="70" height="68" viewBox="0 0 70 68" fill="none" xmlns="http://www.w3.org/2000/svg">
<path d="M43.0307 24.3451C45.7769 24.3451 48 22.1776 48 19.5C48 16.8224 45.7769 14.6549 43.0307 14.6549C41.3797 14.6549 37.7998 15.4358 35.2007 16.6391C35.1925 16.6073 35.1761 16.5834 35.168 16.5515C37.8815 15.6112 40.9792 13.6986 42.1479 12.5591C44.085 10.6704 44.085 7.59439 42.1479 5.70575C40.2109 3.81711 37.056 3.81711 35.1189 5.70575C33.9501 6.84531 31.9886 9.86555 31.0241 12.5112C30.9914 12.4953 30.9669 12.4873 30.9342 12.4794C32.1684 9.94523 32.9694 6.44686 32.9694 4.84511C32.9694 2.16754 30.7462 0 28 0C25.2538 0 23.0306 2.16754 23.0306 4.84511C23.0306 6.45483 23.8316 9.94523 25.0658 12.4794C25.0331 12.4873 25.0086 12.5033 24.9759 12.5112C24.0114 9.86555 22.0499 6.84531 20.8811 5.70575C18.944 3.81711 15.7891 3.81711 13.8521 5.70575C11.915 7.59439 11.915 10.6704 13.8521 12.5591C15.0208 13.6986 18.1185 15.6112 20.832 16.5515C20.8157 16.5834 20.8075 16.6073 20.7993 16.6391C18.2002 15.4358 14.6122 14.6549 12.9694 14.6549C10.2231 14.6549 8 16.8224 8 19.5C8 22.1776 10.2231 24.3451 12.9694 24.3451C14.6204 24.3451 18.2002 23.5642 20.7993 22.3609C20.8075 22.3927 20.8239 22.4166 20.832 22.4485C18.1185 23.3888 15.0208 25.3014 13.8521 26.4409C11.915 28.3296 11.915 31.4056 13.8521 33.2942C15.7891 35.1829 18.944 35.1829 20.8811 33.2942C22.0499 32.1547 24.0114 29.1345 24.9759 26.4888C25.0086 26.5047 25.0331 26.5127 25.0658 26.5206C23.8316 29.0548 23.0306 32.5531 23.0306 34.1549C23.0306 36.8325 25.2538 39 28 39C30.7462 39 32.9694 36.8325 32.9694 34.1549C32.9694 32.5452 32.1684 29.0548 30.9342 26.5206C30.9669 26.5127 30.9914 26.4967 31.0241 26.4888C31.9886 29.1345 33.9501 32.1547 35.1189 33.2942C37.056 35.1829 40.2109 35.1829 42.1479 33.2942C44.085 31.4056 44.085 28.3296 42.1479 26.4409C40.9792 25.3014 37.8815 23.3888 35.168 22.4485C35.1843 22.4166 35.1925 22.3927 35.2007 22.3609C37.7998 23.5642 41.3878 24.3451 43.0307 24.3451Z" fill="#82E1E8"/>
<path d="M65.1549 43.3451C67.8324 43.3451 70 41.1776 70 38.5C70 35.8224 67.8324 33.6549 65.1549 33.6549C63.5452 33.6549 60.0548 34.4358 57.5206 35.6391C57.5127 35.6073 57.4967 35.5834 57.4888 35.5515C60.1344 34.6112 63.1547 32.6986 64.2942 31.5591C66.1829 29.6704 66.1829 26.5944 64.2942 24.7058C62.4056 22.8171 59.3296 22.8171 57.4409 24.7058C56.3014 25.8453 54.3888 28.8656 53.4485 31.5112C53.4166 31.4953 53.3927 31.4873 53.3608 31.4794C54.5642 28.9452 55.3451 25.4469 55.3451 23.8451C55.3451 21.1675 53.1776 19 50.5 19C47.8224 19 45.6549 21.1675 45.6549 23.8451C45.6549 25.4548 46.4358 28.9452 47.6391 31.4794C47.6073 31.4873 47.5834 31.5033 47.5515 31.5112C46.6111 28.8656 44.6986 25.8453 43.559 24.7058C41.6704 22.8171 38.5944 22.8171 36.7058 24.7058C34.8171 26.5944 34.8171 29.6704 36.7058 31.5591C37.8453 32.6986 40.8655 34.6112 43.5112 35.5515C43.4953 35.5834 43.4873 35.6073 43.4794 35.6391C40.9452 34.4358 37.4469 33.6549 35.8451 33.6549C33.1676 33.6549 31 35.8224 31 38.5C31 41.1776 33.1676 43.3451 35.8451 43.3451C37.4548 43.3451 40.9452 42.5642 43.4794 41.3609C43.4873 41.3927 43.5033 41.4166 43.5112 41.4485C40.8655 42.3888 37.8453 44.3014 36.7058 45.4409C34.8171 47.3296 34.8171 50.4056 36.7058 52.2942C38.5944 54.1829 41.6704 54.1829 43.559 52.2942C44.6986 51.1547 46.6111 48.1345 47.5515 45.4888C47.5834 45.5047 47.6073 45.5127 47.6391 45.5206C46.4358 48.0548 45.6549 51.5531 45.6549 53.1549C45.6549 55.8325 47.8224 58 50.5 58C53.1776 58 55.3451 55.8325 55.3451 53.1549C55.3451 51.5452 54.5642 48.0548 53.3608 45.5206C53.3927 45.5127 53.4166 45.4967 53.4485 45.4888C54.3888 48.1345 56.3014 51.1547 57.4409 52.2942C59.3296 54.1829 62.4056 54.1829 64.2942 52.2942C66.1829 50.4056 66.1829 47.3296 64.2942 45.4409C63.1547 44.3014 60.1344 42.3888 57.4888 41.4485C57.5047 41.4166 57.5127 41.3927 57.5206 41.3609C60.0548 42.5642 63.5531 43.3451 65.1549 43.3451Z" fill="#F7F362"/>
<path d="M34.1549 53.3451C36.8324 53.3451 39 51.1776 39 48.5C39 45.8224 36.8324 43.6549 34.1549 43.6549C32.5452 43.6549 29.0548 44.4358 26.5206 45.6391C26.5127 45.6073 26.4967 45.5834 26.4888 45.5515C29.1344 44.6112 32.1547 42.6986 33.2942 41.5591C35.1829 39.6704 35.1829 36.5944 33.2942 34.7058C31.4056 32.8171 28.3296 32.8171 26.4409 34.7058C25.3014 35.8453 23.3888 38.8656 22.4485 41.5112C22.4166 41.4953 22.3927 41.4873 22.3608 41.4794C23.5642 38.9452 24.3451 35.4469 24.3451 33.8451C24.3451 31.1675 22.1776 29 19.5 29C16.8224 29 14.6549 31.1675 14.6549 33.8451C14.6549 35.4548 15.4358 38.9452 16.6391 41.4794C16.6073 41.4873 16.5834 41.5033 16.5515 41.5112C15.6111 38.8656 13.6986 35.8453 12.559 34.7058C10.6704 32.8171 7.5944 32.8171 5.70576 34.7058C3.81713 36.5944 3.81713 39.6704 5.70576 41.5591C6.84532 42.6986 9.86555 44.6112 12.5112 45.5515C12.4953 45.5834 12.4873 45.6073 12.4794 45.6391C9.94524 44.4358 6.44688 43.6549 4.84512 43.6549C2.16755 43.6549 0 45.8224 0 48.5C0 51.1776 2.16755 53.3451 4.84512 53.3451C6.45484 53.3451 9.94524 52.5642 12.4794 51.3609C12.4873 51.3927 12.5033 51.4166 12.5112 51.4485C9.86555 52.3888 6.84532 54.3014 5.70576 55.4409C3.81713 57.3296 3.81713 60.4056 5.70576 62.2942C7.5944 64.1829 10.6704 64.1829 12.559 62.2942C13.6986 61.1547 15.6111 58.1345 16.5515 55.4888C16.5834 55.5047 16.6073 55.5127 16.6391 55.5206C15.4358 58.0548 14.6549 61.5531 14.6549 63.1549C14.6549 65.8325 16.8224 68 19.5 68C22.1776 68 24.3451 65.8325 24.3451 63.1549C24.3451 61.5452 23.5642 58.0548 22.3608 55.5206C22.3927 55.5127 22.4166 55.4967 22.4485 55.4888C23.3888 58.1345 25.3014 61.1547 26.4409 62.2942C28.3296 64.1829 31.4056 64.1829 33.2942 62.2942C35.1829 60.4056 35.1829 57.3296 33.2942 55.4409C32.1547 54.3014 29.1344 52.3888 26.4888 51.4485C26.5047 51.4166 26.5127 51.3927 26.5206 51.3609C29.0548 52.5642 32.5531 53.3451 34.1549 53.3451Z" fill="#FF6060"/>
</svg>
