<svg width="40" height="40" viewBox="0 0 40 40" fill="none" xmlns="http://www.w3.org/2000/svg">
<mask id="mask0_189_4426" style="mask-type:alpha" maskUnits="userSpaceOnUse" x="0" y="0" width="40" height="40">
<rect width="40" height="40" fill="#D9D9D9"/>
</mask>
<g mask="url(#mask0_189_4426)">
<path d="M20.0832 36.6663C18.4999 36.6663 17.0971 36.1663 15.8749 35.1663C14.6526 34.1663 13.8888 32.8886 13.5832 31.333C12.111 31.8052 10.6249 31.7775 9.12486 31.2497C7.62486 30.7219 6.47209 29.8052 5.66653 28.4997C4.8332 27.1663 4.52764 25.6872 4.74986 24.0622C4.97209 22.4372 5.69431 21.083 6.91653 19.9997C5.74986 18.9441 5.04847 17.6386 4.81236 16.083C4.57625 14.5275 4.8332 13.083 5.5832 11.7497C6.3332 10.4163 7.46514 9.45106 8.97903 8.85384C10.4929 8.25662 11.9999 8.19412 13.4999 8.66634C13.8054 7.11079 14.5693 5.83301 15.7915 4.83301C17.0138 3.83301 18.4165 3.33301 19.9999 3.33301C21.5832 3.33301 22.986 3.83301 24.2082 4.83301C25.4304 5.83301 26.1943 7.11079 26.4999 8.66634C28.0554 8.19412 29.5624 8.23579 31.0207 8.79134C32.479 9.3469 33.611 10.333 34.4165 11.7497C35.1665 13.1386 35.4374 14.59 35.229 16.1038C35.0207 17.6177 34.3054 18.9163 33.0832 19.9997C34.3054 21.083 35.0346 22.4233 35.2707 24.0205C35.5068 25.6177 35.2499 27.1108 34.4999 28.4997C33.6943 29.9163 32.5624 30.8608 31.104 31.333C29.6457 31.8052 28.1388 31.8052 26.5832 31.333C26.2776 32.8886 25.5138 34.1663 24.2915 35.1663C23.0693 36.1663 21.6665 36.6663 20.0832 36.6663ZM19.9999 26.6663C21.8332 26.6663 23.4026 26.0136 24.7082 24.708C26.0138 23.4025 26.6665 21.833 26.6665 19.9997C26.6665 18.1663 26.0138 16.5969 24.7082 15.2913C23.4026 13.9858 21.8332 13.333 19.9999 13.333C18.1665 13.333 16.5971 13.9858 15.2915 15.2913C13.986 16.5969 13.3332 18.1663 13.3332 19.9997C13.3332 21.833 13.986 23.4025 15.2915 24.708C16.5971 26.0136 18.1665 26.6663 19.9999 26.6663Z" fill="white"/>
</g>
</svg>
